<?xml version="1.0" standalone="no"?>
<!DOCTYPE svg PUBLIC "-//W3C//DTD SVG 1.1//EN" "http://www.w3.org/Graphics/SVG/1.1/DTD/svg11.dtd" >
<svg xmlns="http://www.w3.org/2000/svg">
<metadata>
Created by FontForge 20120731 at Mon Nov 14 15:00:44 2016
 By admin
</metadata>
<defs>
<font id="iconfont" horiz-adv-x="1024" >
  <font-face 
    font-family="iconfont"
    font-weight="500"
    font-stretch="normal"
    units-per-em="1024"
    panose-1="2 0 6 3 0 0 0 0 0 0"
    ascent="896"
    descent="-128"
    x-height="792"
    bbox="0 -2136 1919 896"
    underline-thickness="0"
    underline-position="0"
    unicode-range="U+0078-E6C0"
  />
<missing-glyph 
 />
    <glyph glyph-name=".notdef" 
 />
    <glyph glyph-name=".notdef" 
 />
    <glyph glyph-name=".null" horiz-adv-x="0" 
 />
    <glyph glyph-name="nonmarkingreturn" horiz-adv-x="341" 
 />
    <glyph glyph-name="x" unicode="x" horiz-adv-x="1001" 
d="M281 543q-27 -1 -53 -1h-83q-18 0 -36.5 -6t-32.5 -18.5t-23 -32t-9 -45.5v-76h912v41q0 16 -0.5 30t-0.5 18q0 13 -5 29t-17 29.5t-31.5 22.5t-49.5 9h-133v-97h-438v97zM955 310v-52q0 -23 0.5 -52t0.5 -58t-10.5 -47.5t-26 -30t-33 -16t-31.5 -4.5q-14 -1 -29.5 -0.5
t-29.5 0.5h-32l-45 128h-439l-44 -128h-29h-34q-20 0 -45 1q-25 0 -41 9.5t-25.5 23t-13.5 29.5t-4 30v167h911zM163 247q-12 0 -21 -8.5t-9 -21.5t9 -21.5t21 -8.5q13 0 22 8.5t9 21.5t-9 21.5t-22 8.5zM316 123q-8 -26 -14 -48q-5 -19 -10.5 -37t-7.5 -25t-3 -15t1 -14.5
t9.5 -10.5t21.5 -4h37h67h81h80h64h36q23 0 34 12t2 38q-5 13 -9.5 30.5t-9.5 34.5q-5 19 -11 39h-368zM336 498v228q0 11 2.5 23t10 21.5t20.5 15.5t34 6h188q31 0 51.5 -14.5t20.5 -52.5v-227h-327z" />
    <glyph glyph-name="kecheng" unicode="&#xe603;" 
d="M682.5 723q-13.5 0 -23 -9t-9.5 -22v-777q0 -13 9.5 -22.5t23 -9.5t23 9.5t9.5 22.5v777q0 13 -9.5 22t-23 9zM770.5 705q-5.5 0 -10 -4t-4.5 -9v-777q0 -5 4.5 -9.5t10 -4.5t10 4.5t4.5 9.5v777q0 5 -4.5 9t-10 4zM846 705q-6 0 -10 -4t-4 -9v-777q0 -5 4 -9.5t10 -4.5
t10 4.5t4 9.5v777q0 5 -4 9t-10 4zM931.5 723q-13.5 0 -23 -9t-9.5 -22v-777q0 -13 9.5 -22.5t23 -9.5t23 9.5t9.5 22.5v777q0 13 -9.5 22t-23 9zM533 723h-121q-24 0 -40.5 -16.5t-16.5 -40.5l-1 -724q0 -23 17 -39.5t41 -16.5h120q24 0 41 16.5t17 39.5v724q0 23 -16.5 40
t-40.5 17zM521 452h-98q-8 0 -14 5.5t-6 14t6 14t14 5.5h98q9 0 14.5 -5.5t5.5 -14t-5.5 -14t-14.5 -5.5zM521 536h-97q-9 0 -15 6t-6 14t6 14t15 6h97q9 0 14.5 -6t5.5 -14t-5.5 -14t-14.5 -6zM240 723h-120q-24 0 -41 -16.5t-17 -40.5v-724q0 -23 17 -39.5t40 -16.5h121
q24 0 41 16.5t17 39.5v724q0 23 -17 40t-41 17zM229 452h-98q-8 0 -14 5.5t-6 14t6 14t14 5.5h98q8 0 14 -5.5t6 -14t-6 -14t-14 -5.5zM229 536h-98q-8 0 -14 6t-6 14t6 14t14 6h98q8 0 14 -6t6 -14t-6 -14t-14 -6z" />
    <glyph glyph-name="xiaochahao" unicode="&#xe608;" 
d="M783 526l-45 45l-226 -226l-226 226l-45 -45l226 -226l-226 -226l45 -46l226 227l226 -227l45 46l-226 226z" />
    <glyph glyph-name="iconfontshuaxin" unicode="&#xe625;" 
d="M871 659q-71 70 -164 109.5t-197 39.5q-162 0 -292.5 -92t-185.5 -239l120 -44q41 110 139 179t219 69q78 0 148 -29.5t123 -82.5l-143 -143h382v382zM510 -84q-78 0 -147.5 29.5t-122.5 82.5l143 143h-383v-383l149 149q71 -70 164 -109.5t197 -39.5q162 0 292.5 92
t185.5 239l-120 45q-41 -111 -138.5 -179.5t-219.5 -68.5z" />
    <glyph glyph-name="mima" unicode="&#xe620;" 
d="M763 357v148q0 101 -72 173t-173 72h-2.5h-2.5h-2.5h-1.5q-102 0 -174 -72t-72 -173v-148h-86v-507h675v507h-89zM591 -57h-153l37 164q-37 22 -37 66q0 31 22.5 53.5t54 22.5t54 -22.5t22.5 -53.5q0 -44 -38 -66zM640 357h-254v148q0 50 36 86t87 36h6h3q50 0 86 -36
t36 -86v-148z" />
    <glyph glyph-name="yanjing" unicode="&#xe61f;" 
d="M1891 -2101q-5 -25 -22 -35q4 0 10 0.5t19.5 7.5t20.5 19zM508.5 600q-153.5 0 -281.5 -81.5t-196 -216.5q68 -135 196 -216.5t281.5 -81.5t281.5 81.5t195 216.5q-67 135 -195 216.5t-281.5 81.5zM743 442q85 -54 140 -140q-55 -86 -140 -140q-107 -68 -234.5 -68
t-235.5 68q-85 54 -139 140q54 86 139 140q5 3 11 7q-14 -39 -14 -81q0 -99 70 -169t168.5 -70t168.5 70t70 169q0 42 -15 81q7 -4 11 -7zM508 397q0 -37 -26 -63t-63 -26t-63.5 26t-26.5 63t26.5 63.5t63.5 26.5t63 -26.5t26 -63.5v0z" />
    <glyph glyph-name="shangchuan" unicode="&#xe609;" 
d="M741 415zM522 616q-4 4 -10 4t-10 -4l-204 -192q-2 -2 -1 -5t4 -3h132v-195q0 -6 4.5 -10.5t10.5 -4.5h128q6 0 10.5 4.5t4.5 10.5v195h132q3 0 4 3t-1 5l-204 192v0zM900 145l-126 88h-79l132 -107l-145 2q-8 0 -12 -8l-40 -97h-236l-40 97q-4 8 -12 8h-144l131 105h-79
l-126 -88q-15 -9 -22.5 -26.5t-3.5 -33.5l23 -128q4 -16 19.5 -27.5t32.5 -11.5h678q17 0 32.5 11.5t19.5 27.5l23 128q4 16 -3.5 33.5t-22.5 26.5v0zM900 145z" />
    <glyph glyph-name="search" unicode="&#xe602;" 
d="M925 -52l-137 164q-7 8 -18 9t-19 -6v0l-42 49q86 98 86 227q0 94 -46 173t-125 125t-172.5 46t-173 -46t-125.5 -125t-46 -172.5t46 -173t125.5 -125.5t172.5 -46q106 0 194 60l40 -47v-1q-8 -6 -9 -17t6 -19l137 -164q7 -8 17.5 -9t19.5 6l66 55q8 7 9 18t-6 19z
M211 391.5q0 99.5 70 170t170 70.5t170.5 -70.5t70.5 -170t-70.5 -170t-170.5 -70.5t-170 70.5t-70 170z" />
    <glyph glyph-name="liebiao" unicode="&#xe604;" 
d="M152.5 652q-26.5 0 -45 -18.5t-18.5 -45t18.5 -44.5t45 -18t45 18t18.5 44.5t-18.5 45t-45 18.5zM937 655h-623q-11 0 -19 -7.5t-8 -18.5v-72q0 -10 8 -18t19 -8h623q10 0 18 8t8 18v72q0 11 -8 18.5t-18 7.5zM937 380h-623q-11 0 -19 -7.5t-8 -18.5v-71q0 -11 8 -18.5
t19 -7.5h623q10 0 18 7.5t8 18.5v71q0 11 -8 18.5t-18 7.5zM937 105h-623q-11 0 -19 -7.5t-8 -18.5v-71q0 -11 8 -18.5t19 -7.5h623q10 0 18 7.5t8 18.5v71q0 11 -8 18.5t-18 7.5zM152.5 377q-26.5 0 -45 -18.5t-18.5 -44.5t18.5 -44.5t45 -18.5t45 18.5t18.5 44.5
t-18.5 44.5t-45 18.5zM152.5 102q-26.5 0 -45 -18.5t-18.5 -44.5t18.5 -44.5t45 -18.5t45 18.5t18.5 44.5t-18.5 44.5t-45 18.5z" />
    <glyph glyph-name="android" unicode="&#xe618;" 
d="M250 52q0 -26 18 -44.5t43 -18.5h44q-2 -8 -2 -16v-126q0 -24 17 -41.5t41 -17.5t41 17.5t17 41.5v126q0 8 -3 16h108q-3 -8 -3 -16v-126q0 -24 17 -41.5t41 -17.5t41 17.5t17 41.5v126q0 8 -2 16h44q25 0 43 18.5t18 44.5v436h-540v-436v0zM154 488q-24 0 -41 -17.5
t-17 -41.5v-254q0 -25 17 -42.5t41 -17.5t41 17.5t17 42.5v254q0 24 -17 41.5t-41 17.5zM886 488q-24 0 -41 -17.5t-17 -41.5v-254q0 -25 17 -42.5t41 -17.5t41 17.5t17 42.5v254q0 24 -17 41.5t-41 17.5zM653 726l10 17l11 17l24 37q5 8 -3 13.5t-13 -2.5l-26 -40l-10 -17
l-11 -17q-55 22 -115 22t-115 -22l-10 17l-11 17l-26 40q-5 8 -13 2.5t-3 -13.5l24 -37l11 -17l10 -17q-62 -30 -99.5 -82.5t-37.5 -115.5h540q0 63 -37.5 115.5t-99.5 82.5zM404.5 607q-11.5 0 -20 9t-8.5 21t8.5 21t20 9t20 -9t8.5 -21t-8.5 -21t-20 -9zM636 607
q-12 0 -20.5 9t-8.5 21t8.5 21t20.5 9t20 -9t8 -21t-8 -21t-20 -9z" />
    <glyph glyph-name="arrowright" unicode="&#xe611;" 
d="M619 -57l312 313q18 18 18 44t-18 44l-312 313q-19 18 -44.5 18t-44 -18.5t-18.5 -44t18 -44.5l206 -206h-599q-26 0 -44.5 -18t-18.5 -44t18.5 -44t44.5 -18h599l-206 -206q-18 -19 -18 -44.5t18.5 -44t44 -18.5t44.5 18z" />
    <glyph glyph-name="shixinxiaoyuandian" unicode="&#xe60a;" 
d="M320 300zM128 300q0 79 56.5 135.5t135.5 56.5t135.5 -56.5t56.5 -135.5t-56.5 -135.5t-135.5 -56.5t-135.5 56.5t-56.5 135.5z" />
    <glyph glyph-name="svg45" unicode="&#xe600;" 
d="M564 698q-23 11 -43 -5l-229 -191h-183v0q-17 0 -28.5 -11.5t-11.5 -27.5l-1 -320q0 -16 11.5 -28t28.5 -12h185l228 -190q11 -9 26 -9q9 0 17 4q23 10 23 36v718q0 25 -23 36v0zM719 499q-15 7 -30.5 1.5t-22.5 -20.5t-1.5 -30.5t19.5 -22.5q4 -2 8 -5t15 -13t19 -22.5
t14.5 -34t6.5 -46.5q0 -27 -6.5 -49.5t-14 -36t-17 -24t-13.5 -13.5t-7 -4q-15 -7 -20 -23t2 -31q11 -22 36 -22q9 0 17 4q6 3 13 8t24.5 21.5t30.5 37t23.5 56t10.5 76.5q0 39 -11 73.5t-25 54.5t-32 36.5t-26 21t-13 7.5v0zM843 616q-14 9 -30 5.5t-25 -17.5t-5.5 -30
t17.5 -25q5 -4 13 -10.5t26 -28t31.5 -47t24.5 -68.5t11 -92t-10.5 -92t-23.5 -69t-30.5 -47.5t-25 -28t-12.5 -9.5q-14 -9 -17 -25.5t6 -30.5q12 -17 33 -17q12 0 22 6q7 5 17.5 13.5t33.5 36t40.5 60t32 87.5t14.5 116t-15 116t-33.5 87.5t-42.5 60.5t-34.5 36t-17.5 13v0
zM843 616z" />
    <glyph glyph-name="zan" unicode="&#xe61d;" 
d="M791 757q25 2 28 -44.5t-12 -97.5q-8 -30 -36.5 -75.5t-52.5 -76.5l-24 -31q7 -1 18.5 -3.5t42.5 -10.5t57 -17t52.5 -23t38.5 -30q21 -26 -7 -143t-79.5 -230t-88.5 -128q-36 -13 -142.5 13.5t-185 54.5t-88.5 34q-36 33 -35.5 179t35.5 225q84 16 182.5 88.5
t183.5 167.5q17 18 29.5 46.5t18.5 48.5t22 36t43 17zM248 469q-5 -3 -12.5 -8.5t-27.5 -21t-36 -31.5t-30.5 -37t-17.5 -40q-9 -61 -11 -192t11 -174q10 -20 40.5 -46t56.5 -43t27 -17q-23 42 -41 105q-12 58 -10.5 182.5t10.5 183.5q4 28 14 63t19 55z" />
    <glyph glyph-name="shanchu" unicode="&#xe624;" 
d="M855 669h-168q-2 68 -51 115.5t-117.5 47.5t-117.5 -47.5t-51 -115.5h-181q-18 0 -31 -13.5t-13 -31.5v-19q0 -19 13 -32t31 -13h15v-460q0 -68 40 -116t97 -48h386q57 0 97 48t40 116v460h11q18 0 31 13t13 32v19q0 18 -13 31.5t-31 13.5zM519 727q25 0 43 -17t20 -41
h-127q2 24 20.5 41t43.5 17zM737 557v-462q0 -20 -13 -34.5t-32 -14.5h-356q-18 0 -31 14.5t-13 34.5v462v3h445v-1v-2zM381 165q15 0 25.5 10.5t10.5 25.5v205q0 14 -10.5 24.5t-25.5 10.5t-25.5 -10.5t-10.5 -24.5v-205q0 -15 10.5 -25.5t25.5 -10.5zM511 165
q15 0 25.5 10.5t10.5 25.5v205q0 14 -10.5 24.5t-25.5 10.5t-25.5 -10.5t-10.5 -24.5v-205q0 -15 10.5 -25.5t25.5 -10.5zM647.5 165q14.5 0 25 10.5t10.5 25.5v205q0 14 -10.5 24.5t-25 10.5t-25 -10.5t-10.5 -24.5v-205q0 -15 10.5 -25.5t25 -10.5z" />
    <glyph glyph-name="daipingjia1" unicode="&#xe61e;" 
d="M512 734q-120 0 -222 -51t-161 -139t-59 -192q0 -73 21.5 -133.5t54.5 -100.5t82.5 -77.5t93.5 -61t100 -55.5t90 -58q38 33 94 67t101 57.5t93 58.5t80 73t53 97t21 133q0 104 -59 192t-161 139t-222 51v0zM304 253q-37 0 -63.5 26.5t-26.5 63.5t26.5 63.5t64 26.5
t63.5 -26.5t26 -63.5t-26 -63.5t-64 -26.5v0zM528 253q-37 0 -63.5 26.5t-26.5 63.5t26.5 63.5t63.5 26.5t63.5 -26.5t26.5 -63.5t-26.5 -63.5t-63.5 -26.5v0zM742 253q-37 0 -63.5 26.5t-26.5 63.5t26.5 63.5t64 26.5t63.5 -26.5t26 -63.5t-26 -63.5t-64 -26.5v0z" />
    <glyph glyph-name="aixin2" unicode="&#xe639;" 
d="M595 324zM896 637q-41 35 -84.5 50t-79 12.5t-71.5 -17t-60.5 -31t-47.5 -37.5t-30 -29.5t-11 -13.5q-4 5 -11 13.5t-30 29.5t-47.5 37.5t-60.5 31t-71.5 17t-79 -12.5t-84.5 -50l-8.5 -8.5t-19 -25t-23 -40.5t-14 -54t1.5 -66.5t29 -76.5t62 -86l356 -379v0v0v0v0
l356 379q39 43 62 86t28.5 77t2 65.5t-14.5 54.5t-22 40t-19.5 26t-8.5 8z" />
    <glyph glyph-name="arrowleft2" unicode="&#xe612;" 
d="M403 -65l-320 320q-19 18 -19 45t19 45l320 320q18 19 45 19t45.5 -18.5t18.5 -45.5t-19 -45l-211 -211h614q27 0 45.5 -18.5t18.5 -45.5t-18.5 -45.5t-45.5 -18.5h-614l211 -211q19 -19 19 -45.5t-18.5 -45t-45.5 -18.5t-45 19z" />
    <glyph glyph-name="fanhui" unicode="&#xe606;" 
d="M801 395q42 -25 82.5 -84t59.5 -131q22 -84 22 -190q-34 55 -48 75q-11 15 -28 34t-55.5 49.5t-80.5 49.5q-40 19 -100.5 27.5t-101.5 7.5h-41v-175l-419 297l419 297v-176q101 -8 154 -19q39 -8 73.5 -23.5t48.5 -27.5z" />
    <glyph glyph-name="suo" unicode="&#xe60d;" 
d="M531 133v-50q0 -7 -5.5 -12.5t-13.5 -5.5t-13.5 5.5t-5.5 12.5v50q-20 6 -32.5 23t-12.5 39q0 27 18.5 46t45.5 19t45.5 -19t18.5 -46q0 -22 -12.5 -39t-32.5 -23v0zM789 -142h-554q-30 0 -51.5 23t-21.5 56v408h700v-408q0 -33 -21.5 -56t-51.5 -23v0zM832 313h-640
v-354q0 -31 18 -50.5t47 -19.5h510q29 0 47 19.5t18 50.5v354v0zM756 478q0 105 -69 173t-175 68t-175 -68t-69 -173v-126h-33v129q0 113 81 192t196 79t196 -79t81 -192v-129h-33v126v0z" />
    <glyph glyph-name="iconfontfangwu" unicode="&#xe601;" 
d="M603 -102v225h-181v-226h-12h-90h-90q-17 0 -27.5 10.5t-10.5 28.5q-1 122 0 277q0 8 7 15q44 38 182 159q117 103 121 106q2 2 5.5 4.5t4.5 4.5q61 -53 72 -63q199 -175 237 -207q12 -11 12 -27q-1 -93 0 -263q0 -28 -17 -39q-9 -6 -17 -6h-192l-4 1v0v0zM719 527v131
v10.5v8.5t1.5 4.5t5 3t9.5 0.5h75q13 0 18 -5.5t5 -19.5q0 -160 -1 -220q0 -16 12 -25q23 -21 103 -91q13 -12 13.5 -19.5t-9.5 -20.5q-4 -5 -12.5 -16t-13.5 -17q-15 -18 -32 -3q-62 55 -184.5 163.5t-183.5 161.5q-2 3 -6.5 7t-6.5 5q-7 -6 -36.5 -32t-45.5 -40
q-40 -36 -141.5 -126t-156.5 -138q-10 -9 -17.5 -8.5t-15.5 10.5q-15 18 -28 36q-15 18 3 34q26 24 166 147q25 22 70 62t82 73t70 62q50 44 100 0q23 -21 119 -106q1 0 8 -7v0z" />
    <glyph glyph-name="ziyuan1" unicode="&#xe60b;" 
d="M989 482l-477 330l-477 -330l477 -330l477 330v0v0zM512 78l-421 281l-56 -59l477 -330l477 330l-56 60l-421 -282v0v0zM512 -104l-421 281l-56 -59l477 -330l477 330l-56 60l-421 -282v0v0zM512 -104z" />
    <glyph glyph-name="shouji" unicode="&#xe60c;" 
d="M736 896h-448q-40 0 -68 -28t-28 -68v-832q0 -40 28 -68t68 -28h448q40 0 68 28t28 68v832q0 40 -28 68t-68 28v0zM384 848h256v-32h-256v32v0zM512 -64q-27 0 -45.5 18.5t-18.5 45.5q0 26 19 45t45 19t45 -19t19 -45q0 -27 -18.5 -45.5t-45.5 -18.5v0zM768 128h-512v640
h512v-640v0zM768 128z" />
    <glyph glyph-name="shijian" unicode="&#xe626;" 
d="M510 -23q-82 0 -156 31t-132 89t-88.5 132t-30.5 156t30.5 156t88.5 132t132.5 89t156 31t156 -31t131.5 -89q79 -78 106.5 -183t0 -210t-106.5 -183q-57 -58 -131.5 -89t-156.5 -31zM510 745q-72 0 -137.5 -27.5t-116.5 -78t-78.5 -116.5t-27.5 -138t27.5 -138
t78.5 -116.5t116.5 -78t137.5 -27.5t138 27.5t117 78.5q69 69 93.5 161.5t0 185t-93.5 162.5q-51 50 -117 77.5t-138 27.5zM676 224q-7 0 -15 4l-141 85l-2 2q-10 5 -12 8l-1 1v0q-25 14 -25 27v239q0 13 9.5 22.5t22 9.5t22 -9.5t9.5 -22.5v-225l142 -82v0l1 -1
q12 -7 16 -19q5 -13 -1 -24q-9 -15 -25 -15v0z" />
    <glyph glyph-name="iphone" unicode="&#xe617;" 
d="M758 240q36 -51 82 -67q-20 -62 -64 -131q-67 -102 -132 -102q-25 0 -73 17q-44 16 -77.5 16t-73.5 -17q-42 -17 -69 -17q-79 0 -155 135q-76 134 -76 263q0 120 58 196q59 76 147 76q19 0 42.5 -5t48.5 -18q27 -15 44.5 -21t27.5 -6q12 0 35 6q24 5 47 19
q25 14 43.5 21.5t37.5 7.5q62 0 111 -34q26 -18 53 -52q-40 -36 -59 -62q-34 -50 -34 -108q0 -65 36 -117v0v0zM582 653q-30 -29 -55 -38q-9 -2 -23 -5q-13 -2 -31 -4q1 78 40.5 135t129.5 78q2 -9 2 -12v-10q0 -32 -15 -72q-15 -39 -48 -72v0v0zM582 653z" />
    <glyph glyph-name="renyuan" unicode="&#xe615;" 
d="M664 428q48 37 76 91.5t28 117.5q0 107 -75 183t-181 76t-181 -76t-75 -183q0 -63 28 -117.5t76 -91.5q-147 -53 -241 -191.5t-94 -312.5q0 -16 11.5 -27.5t27.5 -11.5t27 11.5t11 27.5q0 109 44.5 204.5t121.5 158.5l206 -162v-214q0 -16 11 -27.5t27 -11.5t27 11.5
t11 27.5v214l206 162q77 -63 121.5 -158.5t44.5 -204.5q0 -16 11 -27.5t27 -11.5t27.5 11.5t11.5 27.5q0 174 -94 312.5t-241 191.5zM333 637q0 75 52.5 128t126.5 53t126.5 -53t52.5 -128t-52.5 -128.5t-126.5 -53.5t-126.5 53.5t-52.5 128.5zM512 193l-177 140
q85 45 177 45t177 -45z" />
    <glyph glyph-name="qianming" unicode="&#xe621;" 
d="M66 141q-2 -6 0.5 -9t8.5 -1l158 44q6 1 7 5.5t-3 8.5l-103 110q-4 4 -8.5 3t-6.5 -7zM182 362q-10 -10 0 -20l106 -109q10 -10 21 0l375 357q11 10 1 21l-103 109q-10 11 -21 1zM715 846q-10 11 -20 1l-69 -61q-10 -10 0 -20l108 -110q11 -10 21 0l63 60q10 10 0 21z
M63 65h834v-67h-834v67z" />
    <glyph glyph-name="xiaoxingxing" unicode="&#xe605;" 
d="M491 572h38v-174l171 49l10 -39l-174 -48l112 -140l-32 -24l-104 136l-104 -136l-32 24l108 140l-170 48l10 39l167 -49v174z" />
    <glyph glyph-name="yonghu" unicode="&#xe60e;" 
d="M716 269q-7 0 -12 -5t-5 -12t5 -12t12 -5q48 0 88.5 -20t66 -51t39.5 -66.5t14 -67.5q0 -26 -11 -35t-28 -9h-746q-11 0 -18.5 2.5t-14 13t-6.5 28.5q0 33 14 68t39.5 66t66 51t88.5 20q7 0 12 5t5 12t-5 12t-12 5q-56 0 -103.5 -23.5t-77 -59.5t-46 -77t-16.5 -79
t19.5 -58.5t54.5 -20.5h746q35 0 54.5 21t19.5 58.5t-16.5 78.5t-46 77t-77 59.5t-103.5 23.5zM512.5 281q100.5 0 172 78.5t71.5 189.5t-71.5 189.5t-172 78.5t-172 -78.5t-71.5 -189.5t71.5 -189.5t172 -78.5zM512.5 782q86.5 0 147.5 -68t61 -164.5t-61 -165
t-147.5 -68.5t-147.5 68.5t-61 165t61 164.5t147.5 68z" />
    <glyph glyph-name="jiahao" unicode="&#xe607;" 
d="M965 443h-394v394q0 24 -17.5 41.5t-42 17.5t-41.5 -17t-17 -42v-394h-394q-24 0 -41.5 -17.5t-17.5 -41.5t17 -41.5t42 -17.5h394v-394q0 -24 17.5 -41.5t41.5 -17.5t41.5 17t17.5 42v394h394q24 0 41.5 17.5t17.5 42t-17.5 41.5t-41.5 17v0zM965 443z" />
    <glyph glyph-name="techangaihao" unicode="&#xe627;" 
d="M514 -29q-29 0 -87 31.5t-125 85.5t-128 116.5t-101 133.5t-40 128q1 84 26.5 150.5t66.5 105.5t93.5 57.5t105 12.5t103 -36t85.5 -81q37 50 88 79t103.5 35.5t104.5 -11.5t92.5 -56t66 -104t26.5 -150q0 -57 -40 -128t-101 -134t-127.5 -117t-124.5 -86t-87 -32z
M513 610q-31 45 -75.5 76t-91.5 43.5t-93 3t-82 -39.5t-58.5 -91t-22.5 -145q0 -49 35.5 -110.5t89.5 -116t112.5 -101t110 -74t76.5 -27.5t76 27.5t110 74.5t112.5 102t89 116.5t35.5 110.5q0 85 -22 146t-58 90t-82 38t-93 -4.5t-91.5 -44t-77.5 -74.5zM740 641v29
q62 -18 102 -70t40 -119h-28q0 55 -32 98.5t-82 61.5zM868 453q6 0 10 -4t4 -10t-4 -10.5t-10 -4.5t-10 4.5t-4 10.5t4 10t10 4zM740 656zM726 655.5q0 6.5 4 10.5t10 4t10.5 -4t4.5 -10.5t-4.5 -10.5t-10.5 -4t-10 4t-4 10.5zM868 482zM854 482q0 6 4 10.5t10 4.5
t10.5 -4.5t4.5 -10.5t-4.5 -10t-10.5 -4t-10 4t-4 10z" />
    <glyph glyph-name="zhinan" unicode="&#xe619;" 
d="M1008 374v0v-1v0q0 -103 -40 -196t-107.5 -160.5t-160.5 -107t-195.5 -39.5t-195.5 39.5t-160.5 107t-107.5 160.5t-40 196v0v1v0v0.5v0.5q0 102 39.5 195.5t107 161.5t161 108t196 40t195.5 -40t160.5 -108t107.5 -161.5t40 -195.5v-0.5v-0.5v0v0zM538 807v-30
q0 -14 -10 -24t-24 -10t-23.5 10t-9.5 24v30q-161 -13 -274.5 -126t-125.5 -274h30q14 0 24 -9.5t10 -23.5t-10 -24t-24 -10h-30q13 -160 126 -273.5t274 -126.5v31q0 13 9.5 23t23.5 10t24 -10t10 -23v-31q160 13 273.5 126.5t126.5 273.5h-31q-13 0 -23 10t-10 24t10 23.5
t23 9.5h31q-13 161 -126.5 274t-273.5 126v0v0zM615 279q-5 -10 -15 -15l-352 -190q-7 -4 -14 -4q-14 0 -24 10q-17 17 -7 39l190 351q5 11 16 16l347 186q22 10 39 -7t6 -38l-186 -348v0v0zM449 430l-142 -253l253 142l138 249l-249 -138v0v0zM449 430z" />
    <glyph glyph-name="dianziyouxiang" unicode="&#xe622;" 
d="M512 -128q-104 0 -199 40.5t-163.5 109t-109 163.5t-40.5 199t40.5 199t109 163.5t163.5 109t199 40.5t199 -40.5t163.5 -109t109 -163.5t40.5 -199t-40.5 -199t-109 -163.5t-163.5 -109t-199 -40.5zM512 863q-97 0 -186 -38t-153 -102t-102 -153t-38 -186t38 -186
t102 -153t153 -102t186 -38t186 38t153 102t102 153t38 186t-38 186t-102 153t-153 102t-186 38zM776 120h-528q-34 0 -58.5 24t-24.5 58v364q0 34 24.5 58t58.5 24h528q34 0 58.5 -24t24.5 -58v-364q0 -34 -24.5 -58t-58.5 -24zM248 615q-21 0 -35.5 -14.5t-14.5 -34.5
v-364q0 -20 14.5 -34.5t35.5 -14.5h528q21 0 35.5 14.5t14.5 34.5v364q0 20 -14.5 34.5t-35.5 14.5h-528zM207 621l324 -235l-20 -26l-324 234zM812 621l19 -27l-317 -234l-20 26zM405 452l26 -20l-219 -284l-26 20zM611 444l227 -276l-26 -21l-226 276z" />
    <glyph glyph-name="triangle-copy" unicode="&#xe616;" 
d="M116 186l396 396l396 -396h-792z" />
    <glyph glyph-name="jiaoyu" unicode="&#xe687;" 
d="M512 389q-20 0 -47 11q-8 3 -25 9q-259 96 -355 142v0q-7 4 -7 8.5t5 6.5v0q57 22 203 76q126 47 168 63l2 1q48 19 64 19q15 0 35 -10q1 0 2 -1q43 -18 187 -73l183 -72q7 -3 7 -7.5t-7 -7.5q-316 -130 -364 -152q-17 -8 -45 -12q-3 -1 -6 -1zM970 529q5 3 15 8t15.5 8
t10.5 9t2 11.5t-14 13.5t-32 17q-52 22 -201.5 79.5t-192.5 75.5q-28 14 -52.5 14t-81.5 -23q-43 -16 -179 -66.5t-191 -71.5q-40 -15 -52 -28.5t0.5 -27.5t50.5 -33q85 -40 383 -153q34 -13 61 -13q31 0 68 17q49 22 329 138v-100q0 -20 -13 -34l-17 -16q-6 -6 -6 -14
t6 -14l47 -46q6 -6 14 -6t13 6l47 46q6 6 6 14t-6 14l-30 29v146zM772 136q-13 -12 -30.5 -24t-50 -29.5t-77.5 -28.5t-94 -11q-53 0 -101.5 11t-82 28.5t-52 30t-32.5 23.5v207q36 -14 118 -41q42 -14 61 -21q46 -16 92 -16v0q46 0 79 17q26 11 89 40q51 24 81 37v-223z
M803 406q-9 6 -19 2q-39 -17 -110 -50q-63 -29 -88 -39q-1 -1 -2 -1q-25 -13 -61 -13v0q-39 0 -79 14q-22 8 -61 21q-101 33 -143 51q-10 4 -18.5 -2t-8.5 -17v-244q0 -8 5 -14t14.5 -14t38 -27t61 -33t83.5 -25.5t105 -11.5q50 0 98 11.5t79 26t58.5 33t36.5 26.5t14 14
q6 6 6 14v262q0 10 -9 16z" />
    <glyph glyph-name="weizhi" unicode="&#xe613;" 
d="M903 648q-5 13 -13 27q-17 30 -42.5 59.5t-47.5 48.5t-45 35t-33 22.5t-15 8.5q-16 8 -17 8q-84 39 -178 39q-117 0 -216 -57.5t-156.5 -156.5t-57.5 -216q0 -153 96 -271h1q2 -4 5 -7l308 -308q8 -8 20 -8t20 8l308 308q4 3 6 8v0q96 118 96 270q0 88 -39 182v0z
M800 229l-1 -1l-287 -287l-287 287q-1 1 -1 2q-85 103 -85 236q0 101 50 187t136 136t187 50q99 0 185 -49q97 -68 144 -150l4 -6q40 -79 40 -168q0 -134 -85 -237v0zM800 229zM512 667q-83 0 -142 -59t-59 -142t59 -142t142 -59t142 59t59 142t-59 142t-142 59v0zM512 323
q-60 0 -102 42t-42 101.5t42 101.5t101.5 42t101.5 -42t42 -101.5t-42 -101.5t-101 -42v0zM512 323z" />
    <glyph glyph-name="type" unicode="&#xe6c0;" 
d="M490 508q0 -43 -30 -72.5t-72 -29.5h-252q-42 0 -72 30t-30 72v252q0 42 30 72t72 30h252q42 0 72 -30t30 -72v-252zM431 760q0 18 -12.5 30.5t-30.5 12.5h-252q-18 0 -30.5 -12.5t-12.5 -30.5v-252q0 -18 12.5 -30.5t30.5 -12.5h252q18 0 30.5 12.5t12.5 30.5v252v0z
M152 626q-6 0 -10.5 4.5t-4.5 10.5v27q0 31 18.5 53.5t46.5 22.5h91q6 0 10.5 -4t4.5 -11q0 -6 -4 -10t-11 -4h-91q-16 0 -25.5 -15t-9.5 -33v-26q0 -6 -4.5 -10.5t-10.5 -4.5v0v0zM146 576q-5 0 -10 4q-4 5 -4 11q0 5 4 11q4 4 10.5 4t9.5 -4q5 -5 5 -11t-5 -10
q-3 -5 -10 -5v0v0zM990 508q0 -43 -30 -72.5t-72 -29.5h-252q-43 0 -72.5 29.5t-29.5 72.5v252q0 42 29.5 72t72.5 30h252q42 0 72 -30t30 -72v-252v0zM931 760q0 18 -12.5 30.5t-30.5 12.5h-252q-18 0 -30.5 -12.5t-12.5 -30.5v-252q0 -18 12.5 -30.5t30.5 -12.5h252
q18 0 30.5 12.5t12.5 30.5v252v0zM490 8q0 -42 -30 -72t-72 -30h-252q-42 0 -72 30t-30 72v252q0 43 30 72.5t72 29.5h252q42 0 72 -29.5t30 -72.5v-252zM431 260q0 18 -12.5 30.5t-30.5 12.5h-252q-18 0 -30.5 -12.5t-12.5 -30.5v-252q0 -18 12.5 -30.5t30.5 -12.5h252
q18 0 30.5 12.5t12.5 30.5v252v0zM990 8q0 -42 -30 -72t-72 -30h-252q-43 0 -72.5 30t-29.5 72v252q0 43 29.5 72.5t72.5 29.5h252q42 0 72 -29.5t30 -72.5v-252v0zM931 260q0 18 -12.5 30.5t-30.5 12.5h-252q-18 0 -30.5 -12.5t-12.5 -30.5v-252q0 -18 12.5 -30.5
t30.5 -12.5h252q18 0 30.5 12.5t12.5 30.5v252v0zM931 260z" />
    <glyph glyph-name="daxue" unicode="&#xe610;" 
d="M247 383q-9 0 -15.5 6.5t-6.5 15.5v22q0 9 6.5 15.5t15.5 6.5h22q9 0 15 -6.5t6 -15.5v-22q0 -9 -6 -15.5t-15 -6.5h-22zM247 253q-9 0 -15.5 6.5t-6.5 15.5v22q0 9 6.5 15t15.5 6h22q8 0 14.5 -6.5t6.5 -15.5v-21q0 -9 -6 -15.5t-15 -6.5h-22zM356 -9q-9 0 -15.5 6.5
t-6.5 15.5v21q0 10 6.5 16t15.5 6h21q9 0 15.5 -6.5t6.5 -15.5v-21q0 -9 -6 -15.5t-16 -6.5h-21zM771 253q-9 0 -15.5 6.5t-6.5 15.5v22q0 9 6.5 15t15.5 6h22q8 0 15 -6.5t7 -14.5v-22q0 -9 -6.5 -15.5t-15.5 -6.5h-22zM356 121q-9 0 -15.5 6.5t-6.5 15.5v22q0 9 6.5 15.5
t15.5 6.5h21q10 0 16 -6.5t6 -15.5v-22q0 -9 -6 -15.5t-16 -6.5h-21zM247 -9q-9 0 -15.5 6.5t-6.5 15.5v21q0 10 6.5 16t15.5 6h22q8 0 14.5 -6.5t6.5 -15.5v-21q0 -9 -6 -15.5t-15 -6.5h-22zM247 121q-9 0 -15.5 6.5t-6.5 15.5v22q0 9 6.5 15.5t15.5 6.5h22q9 0 15 -6.5
t6 -15.5v-22q0 -9 -6 -15.5t-15 -6.5h-22zM574 -9q-9 0 -15.5 6.5t-6.5 15.5v21q0 10 6.5 16t15.5 6h22q9 0 15.5 -6.5t6.5 -15.5v-21q0 -9 -6.5 -15.5t-15.5 -6.5h-22zM574 121q-9 0 -15.5 6.5t-6.5 15.5v22q0 9 6.5 15.5t15.5 6.5h22q9 0 15.5 -6.5t6.5 -15.5v-22
q0 -9 -6.5 -15.5t-15.5 -6.5h-22zM771 -9q-9 0 -15.5 6.5t-6.5 15.5v21q0 10 6.5 16t15.5 6h22q8 0 15 -6.5t7 -15.5v-21q0 -9 -6.5 -15.5t-15.5 -6.5h-22zM771 121q-9 0 -15.5 6.5t-6.5 15.5v22q0 9 6.5 15.5t15.5 6.5h22q9 0 15.5 -6.5t6.5 -15.5v-22q0 -9 -6.5 -15.5
t-15.5 -6.5h-22zM356 253q-9 0 -15.5 6.5t-6.5 15.5v22q0 9 6.5 15t15.5 6h21q9 0 15.5 -6.5t6.5 -14.5v-22q0 -9 -6 -15.5t-16 -6.5h-21zM118 -118v590q0 34 23.5 59t57.5 28h5v87q0 18 13 30.5t31 12.5h43v175q0 9 6.5 15.5t15.5 6.5t15.5 -6.5t6.5 -15.5v-176h44
q18 0 30.5 -13t12.5 -31v-86l5 -1q34 -1 58 -26.5t24 -59.5v-174h152v130h87v65h132v-65h24v-545h-786zM705 -75h153v458h-153v-458zM509 -75h152v327h-152v-327zM202 514q-17 0 -30 -13t-13 -30v-546h305v546q0 18 -12 30.5t-31 12.5h-219zM269 645q-9 0 -15.5 -6.5
t-6.5 -15.5v-66h130v66q0 9 -6 15.5t-15 6.5h-87zM356 383q-9 0 -15.5 6.5t-6.5 15.5v22q0 9 6.5 15.5t15.5 6.5h21q10 0 16 -6.5t6 -15.5v-22q0 -9 -6 -15.5t-16 -6.5h-21z" />
    <glyph glyph-name="xingxing" unicode="&#xe614;" 
d="M949 509.5q-8 24.5 -33 28.5l-257 37l-115 233q-12 23 -37.5 23t-37.5 -23l-115 -233l-257 -37q-25 -4 -33 -28.5t11 -42.5l186 -181l-44 -256q-5 -26 16 -41t44 -3l230 121l229 -121q10 -5 20 -5q13 0 24 8q21 15 17 41l-44 256l186 181q18 18 10 42.5z" />
    <glyph glyph-name="icon_on_the_down" unicode="&#xe61b;" 
d="M84 521q-20 20 -20 48q1 30 23.5 51t53.5 20q33 0 56 -23l315 -313l315 313q23 23 56 23q31 1 53.5 -20t23.5 -51q0 -28 -20 -48l-372 -370q-23 -23 -56 -23t-56 23z" />
    <glyph glyph-name="icon_on_the_top" unicode="&#xe61c;" 
d="M84 247q-20 -20 -20 -48q1 -30 23.5 -51t53.5 -20q33 0 56 23l315 313l315 -313q23 -23 56 -23q31 -1 53.5 20t23.5 51q0 28 -20 48l-372 370q-23 23 -56 23t-56 -23z" />
    <glyph glyph-name="tushuguan3" unicode="&#xe61a;" 
d="M879 654v111q-64 0 -119 -6t-91.5 -15t-65.5 -21t-45 -22.5t-27 -22t-14.5 -16t-4.5 -8.5q-1 4 -4 8.5t-14.5 16t-27.5 22t-45 22.5t-65.5 21t-91.5 15t-119 6v-111q-41 2 -82 2v-574q10 1 27.5 2.5t67 2.5t94 -1.5t96.5 -13t87 -28.5q6 -4 20 -15t28 -18.5t29 -7.5
t29 7.5t28 19t21 14.5q34 18 85 29t99 13t91 1.5t69 -2.5l27 -3v574q-41 0 -82 -2v0zM484 120q-102 59 -295 59h-3v544q68 -2 122.5 -11.5t83 -20t49.5 -24t26 -19.5t8 -10l9 -22v-496v0v0zM838 179h-3q-195 0 -297 -60v492l11 27q3 4 8 10t26 19.5t49.5 24t83 20
t122.5 11.5v-544v0z" />
    <glyph glyph-name="yanzhengma" unicode="&#xe60f;" 
d="M816 73zM761 104zM892 617q-52 3 -97 18q-14 4 -29 9q-32 10 -78 34q0 1 -1 1q-11 6 -22 13q-14 8 -31 18l-0.5 0.5l-0.5 0.5l-22 14q-4 3 -14 10q-1 1 -4.5 4t-5.5 4q-40 30 -75 64q-35 -34 -75 -64q-2 -1 -5.5 -4t-4.5 -4q-11 -7 -14 -10l-22 -14l-0.5 -0.5l-0.5 -0.5
q-17 -10 -31 -18q-11 -7 -22 -13q-1 0 -1 -1q-46 -24 -78 -34q-15 -5 -29 -9q-45 -15 -97 -18v0q1 -8 3 -57h1q12 -169 47 -265q0 -2 1 -5t2 -4q0 -1 0.5 -2.5l0.5 -1.5q45 -115 119 -194t165 -109v-1q21 -7 41 -10q20 3 41 10v1q91 30 165 109t119 194l0.5 1.5t0.5 2.5
q1 1 2 4t1 5q35 96 47 265h1q2 49 3 57v0v0zM847 577v-8q-1 -4 -1 -7q-12 -163 -44 -254q-1 -2 -2 -6q-1 -2 -2 -3q-1 -2 -1 -4q-41 -105 -108.5 -178t-149.5 -101q-3 0 -5 -2q-11 -3 -22 -5q-10 2 -22 5q-2 2 -5 2q-82 28 -149.5 100.5t-108.5 178.5q0 2 -1 4q-1 1 -2 3
q-1 4 -1 6q-33 91 -45 254q0 3 -1 7v8v4q35 6 65 16q14 4 30 9q36 11 84 37q1 1 2 1q12 6 23 13q15 9 32 20q1 1 2 1q12 8 22 15q5 3 13 9l2 2l4 3q5 3 7 5q25 19 49 39q24 -21 49 -39q2 -2 7 -5l4 -3l1 -1q9 -7 13 -10q11 -7 23 -15l1 -1q18 -11 32 -19q12 -8 24 -14h1
q49 -27 85 -38q16 -5 29 -9q31 -10 66 -16v-4v0zM698 482l-220 -225l-112 115q-6 6 -14.5 6t-14 -6t-5.5 -14.5t5 -14.5l127 -130q6 -6 14 -6t14 6l234 240q6 6 6 14.5t-6 14.5t-14 6t-14 -6v0z" />
    <glyph glyph-name="shenfenzheng" unicode="&#xe623;" 
d="M462 425l-26 32q39 31 39 80q0 42 -30 72t-72.5 30t-72.5 -30t-30 -72q0 -49 39 -80l-25 -32q-55 43 -55 112q0 59 42 101t101.5 42t101.5 -42t42 -101q0 -69 -54 -112zM559 229q-5 0 -10 3q-8 5 -9.5 13t2.5 16q15 22 15 47q0 36 -30 67q-29 28 -74 43
q-36 -24 -80.5 -24t-80.5 24q-45 -15 -74 -43q-30 -31 -30 -67q0 -25 15 -47q4 -7 2.5 -15.5t-9 -13t-15.5 -2.5t-13 9q-21 32 -21 69q0 53 42 95q39 40 102 58q10 2 18 -4q28 -22 63.5 -22t63.5 22q8 6 18 4q63 -18 102 -58q42 -42 42 -95q0 -37 -21 -69q-6 -10 -18 -10z
M839 575h-205q-8 0 -14 6t-6 14v0q0 9 6 15t14 6h205q9 0 15 -6t6 -15v0q0 -8 -6 -14t-15 -6zM839 451h-205q-8 0 -14 6t-6 15v0q0 8 6 14t14 6h205q9 0 15 -6t6 -14v0q0 -9 -6 -15t-15 -6zM839 329h-205q-8 0 -14 6t-6 15v0q0 8 6 14t14 6h205q9 0 15 -6t6 -14v0
q0 -9 -6 -15t-15 -6zM859 792q25 0 43 -18t18 -43v-602q0 -26 -18 -44t-43 -18h-693q-26 0 -44 18t-18 44v602q0 25 18 43t44 18h693zM859 833h-693q-43 0 -73 -30t-30 -72v-602q0 -43 30 -72.5t73 -29.5h693q42 0 72 29.5t30 72.5v602q0 42 -30 72t-72 30v0z" />
  </font>
</defs>
</svg>
